<svg xmlns="http://www.w3.org/2000/svg" viewBox="0 0 225 210.95"><defs><style>.cls-1{fill:#3561ab;}</style></defs><g id="Calque_2" data-name="Calque 2"><g id="Calque_1-2" data-name="Calque 1"><path class="cls-1" d="M116.92,84.39l65.89,23.53v96a7,7,0,0,1-7,7H147.66a7,7,0,0,1-7-7V154.7H70.31v49.22a7,7,0,0,1-7,7H35.16a7,7,0,0,1-7-7v-94A42.13,42.13,0,0,1,0,70.33a14.06,14.06,0,1,1,28.12,0A14.1,14.1,0,0,0,42.19,84.39Z"/><path class="cls-1" d="M225,35.17V49.23a28.13,28.13,0,0,1-28.12,28.13H182.81V93L126.56,72.9V7a7,7,0,0,1,12-5l12,12h23.57a15.4,15.4,0,0,1,12.58,7.77l3.14,6.29H218A7,7,0,0,1,225,35.17Z"/></g></g></svg>