<svg xmlns="http://www.w3.org/2000/svg" viewBox="0 0 225 300"><defs><style>.cls-1{fill:#3461ab;}</style></defs><g id="Calque_2" data-name="Calque 2"><g id="Calque_1-2" data-name="Calque 1"><path class="cls-1" d="M70.31,42.19A42.19,42.19,0,1,1,112.5,84.38,42.19,42.19,0,0,1,70.31,42.19Zm149.2.8A18.76,18.76,0,0,0,193,43L142.23,93.75H82.77L32,43A18.75,18.75,0,0,0,5.49,69.51L60.94,125v156.3A18.74,18.74,0,0,0,79.69,300h9.37a18.74,18.74,0,0,0,18.75-18.75V215.63h9.38v65.62A18.74,18.74,0,0,0,135.94,300h9.37a18.74,18.74,0,0,0,18.75-18.75V125l55.45-55.44A18.76,18.76,0,0,0,219.51,43Z"/></g></g></svg>