<svg xmlns="http://www.w3.org/2000/svg" viewBox="0 0 225 157.5"><defs><style>.cls-1{fill:#3561ab;}</style></defs><g id="Calque_2" data-name="Calque 2"><g id="Calque_1-2" data-name="Calque 1"><path class="cls-1" d="M218.37,7.9A104.07,104.07,0,0,0,177.45,0c-43.3,0-86.6,21.92-129.9,21.92A106.52,106.52,0,0,1,15,17.09a12.27,12.27,0,0,0-3.64-.57A11.19,11.19,0,0,0,0,27.71V139.24A11.19,11.19,0,0,0,6.62,149.6a104.15,104.15,0,0,0,40.93,7.9c43.3,0,86.6-21.92,129.9-21.92A106.81,106.81,0,0,1,210,140.4a12,12,0,0,0,3.64.57A11.19,11.19,0,0,0,225,129.79V18.26A11.18,11.18,0,0,0,218.37,7.9ZM112.5,112.5C97,112.5,84.37,97.38,84.37,78.75S97,45,112.5,45s28.12,15.11,28.12,33.75S128,112.5,112.5,112.5Z"/></g></g></svg>