<?xml version="1.0" encoding="utf-8"?>
<!-- Generator: Adobe Illustrator 25.2.1, SVG Export Plug-In . SVG Version: 6.00 Build 0)  -->
<svg version="1.1" id="Calque_1" focusable="false" xmlns="http://www.w3.org/2000/svg" xmlns:xlink="http://www.w3.org/1999/xlink"
	 x="0px" y="0px" viewBox="0 0 640 512" style="enable-background:new 0 0 640 512;" xml:space="preserve">
<style type="text/css">
	.st0{fill:#0065FC;}
</style>
<path class="st0" d="M621.2,54.5C582.4,38.2,543.5,32,504.8,32c-123.2,0-246.3,62.3-369.5,62.3c-30.9,0-61.8-3.9-92.7-13.7
	c-3.5-1.1-7-1.6-10.3-1.6C15,79,0,92.3,0,110.8v317.3c0,12.6,7.2,24.6,18.8,29.5C57.6,473.8,96.4,480,135.2,480
	c123.2,0,246.3-62.4,369.5-62.4c30.9,0,61.8,3.9,92.7,13.7c3.5,1.1,7,1.6,10.3,1.6c17.2,0,32.2-13.3,32.2-31.8V83.9
	C640,71.3,632.8,59.3,621.2,54.5L621.2,54.5z M320,352c-44.2,0-80-43-80-96c0-53,35.8-96,80-96s80,43,80,96
	C400,309,364.2,352,320,352z"/>
</svg>
