<svg id="Calque_1" data-name="Calque 1" xmlns="http://www.w3.org/2000/svg" viewBox="0 0 511 489.69"><defs><style>.cls-1{fill:#f2f2f2;}</style></defs><path class="cls-1" d="M509.66,196a27.11,27.11,0,0,0-23.35-18.65L338.8,164,280.5,27.47a27.17,27.17,0,0,0-50,0L172.23,164,24.69,177.35A27.19,27.19,0,0,0,9.26,224.87l111.51,97.77L87.89,467.45a27.16,27.16,0,0,0,40.41,29.36l127.2-76.05,127.18,76.05a27.17,27.17,0,0,0,40.43-29.36L390.24,322.64l111.5-97.77A27.18,27.18,0,0,0,509.66,196Z" transform="translate(0 -10.97)"/></svg>